<?xml version="1.0" encoding="utf-8"?>
<!-- Generator: Adobe Illustrator 27.9.0, SVG Export Plug-In . SVG Version: 6.00 Build 0)  -->
<svg version="1.1" id="Camada_1" xmlns="http://www.w3.org/2000/svg" xmlns:xlink="http://www.w3.org/1999/xlink" x="0px" y="0px"
	 viewBox="0 0 433.3 433.3" style="enable-background:new 0 0 433.3 433.3;" xml:space="preserve">
<style type="text/css">
	.st0{fill:#00A66E;}
	.st1{fill-rule:evenodd;clip-rule:evenodd;fill:#00A66E;}
</style>
<polygon class="st0" points="163.6,45.4 162,45.4 161.1,45.4 160.7,45.4 160.5,45.4 134.4,74.8 111.7,100.3 92.1,122.1 75.4,140.6 
	61.4,156.1 49.8,168.9 40.3,179.2 32.9,187.4 26.9,193.8 22.5,198.8 19.2,202.6 16.7,205.5 14.9,207.8 13.4,209.9 12.1,212 
	10.7,214.5 9.2,217 7.9,219.3 7,221.3 6.2,223.1 5.5,224.7 5.3,226.3 5,227.6 5,228.9 5.3,230.2 5.5,231.5 6,232.8 6.7,234.3 
	8.4,237.4 10.8,241.4 35.7,267.1 57.7,289.6 76.6,309 92.7,325.7 106.6,339.8 118,351.4 127.3,360.9 134.7,368.4 140.6,374.3 
	144.9,378.7 147.9,381.8 150,383.8 151.2,385 151.9,385.6 152.1,385.8 171.3,385.8 188.1,385.8 202.6,385.9 215.1,385.9 
	225.6,385.9 234.2,385.9 241.5,385.9 247.1,386 251.6,386 255,386 257.4,386 258.9,386.2 259.9,386.2 260.4,386.2 260.5,386.2 
	235.6,359.9 213.7,336.9 194.8,316.9 178.7,300 165,285.5 153.6,273.6 144.4,263.9 136.9,256 131.2,249.9 126.9,245.5 123.9,242.2 
	121.9,240.1 120.7,238.8 120.1,238.1 120,237.8 119.8,237.8 118.1,235.2 116.7,232.8 115.5,230.8 114.6,228.9 113.9,227.3 
	113.4,225.9 113.2,224.6 113.1,223.4 113.2,222.3 113.5,221.2 114,220.1 114.6,218.9 115.9,216.6 117.6,213.5 118.4,212.3 
	120,210.3 122.3,207.5 125.2,203.9 133,195 142.7,183.9 154.1,171 166.7,156.8 180.1,141.8 193.9,126.4 207.6,111.2 220.8,96.6 
	233.2,82.8 244.2,70.6 253.6,60.4 260.8,52.5 265.4,47.3 267.1,45.5 248.2,45.5 231.6,45.5 217.3,45.5 204.9,45.5 194.7,45.5 
	186,45.5 179.1,45.5 173.4,45.5 169.1,45.5 165.8,45.4 "/>
<polygon class="st1" points="304.8,45.6 278,74.9 254.5,100.4 234.1,122.6 216.5,141.5 201.8,157.6 189.5,171 179.3,181.9 
	171.2,190.6 164.9,197.3 160,202.4 156.6,205.9 154.4,208.3 152.9,209.7 152.3,210.4 152,210.6 151.1,212.1 150.4,213.7 
	149.9,215.1 149.4,216.7 149.1,218.3 149,219.7 148.8,221.3 149,222.9 149.2,224.4 149.6,226 150.2,227.6 150.8,229 151.6,230.6 
	152.5,232.1 153.7,233.5 155,234.8 157.8,237.7 163.4,243.5 171.2,251.5 180.9,261.6 192.2,273.2 204.4,285.9 217.6,299.3 
	230.8,313.1 244.1,326.8 256.8,339.9 268.8,352.3 279.4,363.2 288.4,372.4 295.2,379.6 299.7,384.1 301.2,385.6 322,385.6 
	340.1,385.6 355.9,385.6 369.4,385.6 380.9,385.6 390.4,385.6 398.3,385.6 404.6,385.6 409.5,385.6 413.2,385.6 415.9,385.6 
	417.6,385.6 418.8,385.6 419.4,385.5 419.6,385.5 419.6,368.3 419.6,353.3 419.6,340.3 419.6,329.1 419.6,319.7 419.6,311.8 
	419.6,305.2 419.6,300.1 419.6,296 419.6,293 419.6,290.9 419.6,289.5 419.6,288.6 419.6,288 419.6,287.9 419.6,288.6 419.6,290.7 
	419.6,293.8 419.6,297.6 419.6,301.8 419.6,306.2 419.6,310.4 419.6,313.9 419.6,316.8 419.6,318.4 419.6,318.6 419.6,317.2 
	419.6,313.6 419.6,307.7 419.6,299.2 419.6,287.8 419.6,264.8 419.6,247.6 419.6,235.2 419.6,226.9 419.6,221.8 419.6,219.2 
	419.6,218.3 419.6,218.1 393.3,218.1 373.5,218.1 359.3,218.1 349.8,218.1 344.1,218.1 341.2,218.1 340,218 339.9,218 339.9,246.8 
	339.9,268.4 339.9,283.9 339.9,294.3 339.9,300.6 339.9,303.8 339.9,305 339.9,305.1 339.9,305.2 339.9,305.1 339.9,304.4 
	339.9,303.4 339.9,303.3 339.9,305 339.9,307.5 339.9,308.8 339.9,309.2 314.4,282.9 295.2,263.1 281.4,248.9 272.2,239.4 
	266.7,233.6 263.8,230.6 262.9,229.4 262.6,229.3 261.2,227.3 259.5,225.5 258.7,224.6 257.9,223.7 257.2,222.6 256.7,221.6 
	256.3,220.4 256.3,219.2 256.3,218.5 256.5,217.9 256.6,217.1 257,216.3 257.8,214.7 258.9,212.9 260.5,210.9 262.6,208.5 
	262.8,208.5 264.5,206.7 269.3,201.4 276.7,193.4 286.4,183.1 297.7,170.7 310.4,156.9 324,142.2 338,127 352.1,111.9 365.6,97.1 
	378.4,83.3 389.7,71.1 399.2,60.6 406.7,52.6 411.5,47.5 413.2,45.6 394.1,45.6 377.4,45.6 363,45.6 350.6,45.6 340.1,45.6 
	331.3,45.6 324.1,45.6 318.5,45.6 314,45.6 310.6,45.6 308.2,45.6 306.5,45.6 305.6,45.6 305.1,45.6 304.9,45.6 "/>
</svg>
