<?xml version="1.0" encoding="utf-8"?>
<!-- Generator: Adobe Illustrator 27.9.0, SVG Export Plug-In . SVG Version: 6.00 Build 0)  -->
<svg version="1.1" id="Camada_1" xmlns="http://www.w3.org/2000/svg" xmlns:xlink="http://www.w3.org/1999/xlink" x="0px" y="0px"
	 viewBox="0 0 340 70.8" style="enable-background:new 0 0 340 70.8;" xml:space="preserve">
<style type="text/css">
	.st0{fill:#00A66E;}
	.st1{fill-rule:evenodd;clip-rule:evenodd;fill:#00A66E;}
	.st2{fill:#FFFFFF;}
	.st3{fill:#FFFFFF;stroke:#29221E;stroke-width:0.177;stroke-linecap:square;stroke-miterlimit:10;}
	.st4{fill-rule:evenodd;clip-rule:evenodd;fill:#FFFFFF;}
</style>
<g>
	<polygon class="st0" points="26.6,8.3 26.3,8.3 26.2,8.3 26.1,8.3 26.1,8.3 21.9,13 18.2,17.1 15,20.6 12.4,23.6 10.1,26.1 
		8.2,28.2 6.7,29.9 5.5,31.2 4.5,32.2 3.8,33 3.3,33.6 2.9,34.1 2.6,34.4 2.4,34.8 2.1,35.1 1.9,35.5 1.7,35.9 1.5,36.3 1.3,36.6 
		1.2,36.9 1.1,37.2 1,37.4 1,37.6 1,37.9 1,38.1 1.1,38.3 1.2,38.5 1.3,38.7 1.5,39.2 1.9,39.9 6,44 9.5,47.6 12.5,50.8 15.2,53.5 
		17.4,55.7 19.2,57.6 20.7,59.2 21.9,60.4 22.9,61.3 23.6,62 24.1,62.5 24.4,62.8 24.6,63 24.7,63.1 24.7,63.2 27.8,63.2 30.5,63.2 
		32.9,63.2 34.9,63.2 36.6,63.2 38,63.2 39.1,63.2 40,63.2 40.8,63.2 41.3,63.2 41.7,63.2 42,63.2 42.1,63.2 42.2,63.2 42.2,63.2 
		38.2,59 34.7,55.3 31.6,52.1 29,49.3 26.8,47 25,45.1 23.5,43.5 22.3,42.2 21.4,41.3 20.7,40.5 20.2,40 19.9,39.7 19.7,39.5 
		19.6,39.3 19.5,39.3 19.5,39.3 19.2,38.9 19,38.5 18.8,38.2 18.7,37.9 18.6,37.6 18.5,37.4 18.5,37.2 18.4,37 18.5,36.8 18.5,36.6 
		18.6,36.4 18.7,36.3 18.9,35.9 19.2,35.4 19.3,35.2 19.5,34.9 19.9,34.4 20.4,33.8 21.6,32.4 23.2,30.6 25,28.5 27.1,26.2 
		29.2,23.8 31.5,21.3 33.7,18.9 35.8,16.5 37.8,14.3 39.6,12.3 41.1,10.7 42.3,9.4 43,8.6 43.3,8.3 40.2,8.3 37.5,8.3 35.2,8.3 
		33.2,8.3 31.6,8.3 30.2,8.3 29.1,8.3 28.2,8.3 27.5,8.3 26.9,8.3 	"/>
	<polygon class="st1" points="49.3,8.3 45,13 41.2,17.1 38,20.7 35.1,23.8 32.7,26.4 30.7,28.5 29.1,30.3 27.8,31.7 26.8,32.8 
		26,33.6 25.4,34.2 25.1,34.5 24.9,34.8 24.8,34.9 24.7,34.9 24.6,35.1 24.5,35.4 24.4,35.6 24.3,35.9 24.2,36.1 24.2,36.4 
		24.2,36.6 24.2,36.9 24.3,37.1 24.3,37.4 24.4,37.6 24.5,37.9 24.6,38.1 24.8,38.4 25,38.6 25.2,38.8 25.6,39.3 26.6,40.2 
		27.8,41.5 29.4,43.1 31.2,45 33.2,47.1 35.3,49.2 37.4,51.4 39.6,53.6 41.6,55.8 43.5,57.8 45.3,59.5 46.7,61 47.8,62.2 48.5,62.9 
		48.8,63.1 52.1,63.1 55.1,63.1 57.6,63.1 59.8,63.1 61.6,63.1 63.2,63.1 64.4,63.1 65.5,63.1 66.2,63.1 66.8,63.1 67.3,63.1 
		67.5,63.1 67.7,63.1 67.8,63.1 67.9,63.1 67.9,60.3 67.9,57.9 67.9,55.8 67.9,54 67.9,52.5 67.9,51.2 67.9,50.2 67.9,49.3 
		67.9,48.7 67.9,48.2 67.9,47.9 67.9,47.6 67.9,47.5 67.9,47.4 67.9,47.4 67.9,47.5 67.9,47.8 67.9,48.3 67.9,48.9 67.9,49.6 
		67.9,50.3 67.9,51 67.9,51.6 67.9,52 67.9,52.3 67.9,52.3 67.9,52.1 67.9,51.5 67.9,50.6 67.9,49.2 67.9,47.4 67.9,43.6 67.9,40.9 
		67.9,38.9 67.9,37.5 67.9,36.7 67.9,36.3 67.9,36.1 67.9,36.1 63.6,36.1 60.4,36.1 58.1,36.1 56.6,36.1 55.7,36.1 55.2,36.1 
		55,36.1 55,36.1 55,40.7 55,44.2 55,46.7 55,48.4 55,49.4 55,49.9 55,50.1 55,50.1 55,50.2 55,50.1 55,50 55,49.9 55,49.9 55,50.1 
		55,50.5 55,50.7 55,50.8 50.9,46.6 47.8,43.4 45.6,41.1 44.1,39.6 43.2,38.6 42.7,38.1 42.6,37.9 42.5,37.9 42.3,37.6 42,37.3 
		41.9,37.2 41.8,37 41.7,36.8 41.6,36.7 41.5,36.5 41.5,36.3 41.5,36.2 41.6,36.1 41.6,36 41.6,35.8 41.8,35.6 42,35.3 42.2,35 
		42.5,34.6 42.6,34.6 42.8,34.3 43.6,33.4 44.8,32.1 46.4,30.5 48.2,28.5 50.3,26.3 52.4,23.9 54.7,21.4 57,19 59.2,16.6 61.2,14.4 
		63,12.4 64.6,10.7 65.8,9.4 66.6,8.6 66.8,8.3 63.8,8.3 61.1,8.3 58.7,8.3 56.7,8.3 55.1,8.3 53.6,8.3 52.5,8.3 51.6,8.3 50.8,8.3 
		50.3,8.3 49.9,8.3 49.6,8.3 49.5,8.3 49.4,8.3 49.4,8.3 	"/>
	<polygon class="st2" points="237.8,62.8 239.3,62.8 239.1,62.6 238.9,62.2 238.6,61.7 238.5,61.5 	"/>
	<polygon class="st3" points="238.5,61.5 237.8,62.8 239.3,62.8 239.1,62.6 238.9,62.2 238.6,61.7 	"/>
	<path class="st2" d="M108.4,46.1l0.1-0.2l0.1-0.3l0.1-0.3l0.2-0.4l0.1-0.4l0.2-0.5l0.2-0.5l0.2-0.5l0,0.3l0,0.3l0,0.4l0,0.4l0,0.4
		l0.1,0.4l0.1,0.4L110,46l1.2,6.4h-5.7L108.4,46.1z M105.9,36.3L93.2,61.6L93,63.3l-0.7,0.2l0,0h7.9l2.6-5.1h9.5l1.1,5.1h7.4H120
		l0.3-2L115,36.3H105.9z M130.7,41.6h1.1h0.6l0.5,0l0.5,0.1l0.5,0.1l0.4,0.1l0.4,0.1l0.3,0.1l0.3,0.2l0.1,0.1l0.1,0.1l0.1,0.1
		l0.1,0.1l0.1,0.1l0.1,0.1l0.1,0.1l0.1,0.2l0.1,0.3l0.1,0.4l0,0.4l0,0.4l0,0.4l0,0.4l0,0.2l-0.1,0.2l0,0.2l-0.1,0.2l-0.1,0.2
		l-0.1,0.1l-0.1,0.2l-0.1,0.1l-0.1,0.1l-0.1,0.1l-0.1,0.1l-0.1,0.1l-0.2,0.1l-0.1,0.1l-0.2,0.1l-0.2,0.1l-0.4,0.2l-0.4,0.1l-0.4,0.1
		l-0.5,0.1l-0.5,0l-0.5,0h-2.3L130.7,41.6z M132.4,36.3h-0.8h-7.2l-4,25.2l0.4,2h6.5l1.6-10.4l5.3,10.4h8.3l-6.6-10.7l0.4-0.1
		l0.4-0.1l0.4-0.1l0.4-0.1l0.4-0.1l0.4-0.1l0.4-0.1l0.4-0.2l0.3-0.2l0.3-0.2l0.3-0.2l0.3-0.2l0.3-0.2l0.3-0.3l0.3-0.3l0.3-0.3
		l0.3-0.3l0.2-0.3l0.2-0.3l0.2-0.3l0.2-0.3l0.2-0.3l0.1-0.3l0.1-0.3L143,47l0.1-0.4l0.1-0.4l0.1-0.4l0.1-0.4l0-0.4l0-0.4v-0.4l0-0.6
		l0-0.6l-0.1-0.5l-0.1-0.5l-0.1-0.5l-0.2-0.5l-0.2-0.5l-0.3-0.5l-0.3-0.4l-0.3-0.4l-0.3-0.4l-0.4-0.4l-0.4-0.3l-0.4-0.3l-0.5-0.3
		l-0.5-0.3l-0.3-0.1l-0.3-0.1l-0.3-0.1l-0.3-0.1l-0.4-0.1l-0.4-0.1l-0.4-0.1l-0.4-0.1l-0.4-0.1l-0.5,0l-0.5,0l-0.6,0l-0.6,0l-0.7,0
		H132.4z M151.9,51.8h1.3l0.5,0l0.5,0l0.4,0l0.4,0.1l0.4,0.1l0.3,0.1l0.3,0.1l0.3,0.1l0.2,0.2l0.2,0.2l0.1,0.2l0.1,0.3l0.1,0.3
		l0.1,0.3l0,0.3l0,0.4l0,0.5l-0.1,0.4l0,0.2l-0.1,0.2l0,0.2l-0.1,0.2l-0.1,0.2l-0.1,0.2l-0.1,0.1l-0.1,0.1l-0.1,0.1l-0.1,0.1
		l-0.1,0.1l-0.1,0.1l-0.1,0.1l-0.1,0.1l-0.2,0.1l-0.2,0.1l-0.2,0.1l-0.2,0.1l-0.3,0.1l-0.3,0.1l-0.6,0.1l-0.7,0.1l-0.7,0l-0.8,0
		h-0.9L151.9,51.8z M153.5,41.5h1l0.4,0l0.4,0l0.4,0l0.3,0.1l0.3,0.1l0.3,0.1l0.3,0.1l0.2,0.1l0.2,0.1l0.2,0.2l0.1,0.2l0.1,0.2
		l0.1,0.2l0.1,0.3l0,0.3l0,0.3l0,0.4l0,0.4l-0.1,0.3l-0.1,0.3l-0.1,0.2l-0.1,0.1l-0.1,0.1l-0.1,0.1l-0.1,0.1l-0.1,0.1l-0.1,0.1
		l-0.1,0.1l-0.1,0.1l-0.1,0.1l-0.2,0.1l-0.2,0.1l-0.4,0.1l-0.4,0.1l-0.5,0.1l-0.5,0.1l-0.6,0l-0.6,0h-0.6L153.5,41.5z M154.4,36.3
		h-0.9h-6.2L143,63.5h7.1h1.9h1l0.9,0l0.9,0l0.8,0l0.7,0l0.6-0.1l0.6-0.1l0.5-0.1l0.4-0.1l0.4-0.1l0.4-0.1l0.4-0.1l0.4-0.2l0.3-0.1
		l0.3-0.2l0.3-0.2l0.4-0.3l0.4-0.3l0.4-0.3l0.3-0.3l0.3-0.4l0.3-0.4l0.3-0.4l0.2-0.4l0.2-0.4l0.2-0.4L164,58l0.1-0.5l0.1-0.5
		l0.1-0.5l0-0.5l0-0.5l0-0.3v-0.3l0-0.3l0-0.3l0-0.3l-0.1-0.3l-0.1-0.3l-0.1-0.3L164,53l-0.1-0.2l-0.1-0.3l-0.1-0.2l-0.1-0.2
		l-0.1-0.2l-0.1-0.2l-0.2-0.2l-0.2-0.2l-0.2-0.2l-0.2-0.2l-0.2-0.2l-0.2-0.2l-0.2-0.1l-0.2-0.1l-0.2-0.1l-0.3-0.1l-0.3-0.1l-0.3-0.1
		l-0.3-0.1l-0.3-0.1l-0.3-0.1l-0.3-0.1l-0.3-0.1l0.3,0l0.3-0.1l0.3-0.1l0.3-0.1l0.3-0.1l0.3-0.1l0.3-0.1l0.3-0.1l0.3-0.1l0.2-0.1
		l0.3-0.2l0.2-0.2l0.2-0.2l0.2-0.2l0.2-0.2l0.2-0.2l0.2-0.2l0.2-0.2l0.2-0.3l0.1-0.2l0.1-0.3l0.1-0.3l0.1-0.3l0.1-0.3l0.1-0.3
		l0.1-0.3l0.1-0.3l0-0.3l0-0.3l0-0.3v-0.3l0-0.3l0-0.5l0-0.5l-0.1-0.4l-0.1-0.4l-0.1-0.4l-0.2-0.4l-0.2-0.4l-0.2-0.4l-0.3-0.4
		l-0.3-0.4l-0.3-0.3l-0.3-0.3l-0.4-0.3l-0.4-0.2l-0.4-0.2l-0.4-0.2l-0.3-0.1l-0.3-0.1l-0.3-0.1l-0.3-0.1l-0.7-0.1l-0.7-0.1l-0.4,0
		l-0.5,0l-0.6,0l-0.6,0l-0.7,0l-0.7,0H154.4z M234.7,41.6h1.1h0.6l0.6,0l0.5,0.1l0.4,0.1l0.4,0.1l0.4,0.1l0.3,0.1l0.3,0.2l0.1,0.1
		l0.1,0.1l0.1,0.1l0.1,0.1l0.1,0.1l0.1,0.1l0.1,0.1l0.1,0.2l0.1,0.3l0.1,0.4l0.1,0.4v0.4v0.4l-0.1,0.4l0,0.2l0,0.2l-0.1,0.2
		l-0.1,0.2l-0.1,0.2l-0.1,0.1l-0.1,0.2l-0.1,0.1l-0.1,0.1l-0.1,0.1l-0.1,0.1l-0.1,0.1l-0.1,0.1l-0.2,0.1l-0.2,0.1l-0.2,0.1l-0.4,0.2
		l-0.4,0.1l-0.4,0.1l-0.4,0.1l-0.5,0l-0.5,0h-2.3L234.7,41.6z M236.3,36.3h-0.8h-7.2L224,63.5h7.2l1.6-10.4l5.3,10.4h8.3H244
		l1.1-2.1l-5.3-8.6l0.4-0.1l0.4-0.1l0.4-0.1l0.4-0.1l0.4-0.1l0.4-0.1l0.4-0.1l0.3-0.2l0.3-0.2l0.3-0.2l0.3-0.2l0.3-0.2l0.3-0.2
		l0.3-0.3l0.3-0.3l0.3-0.3l0.3-0.3l0.2-0.3L246,49l0.2-0.3l0.2-0.3l0.1-0.3l0.1-0.3l0.1-0.3l0.1-0.4l0.1-0.4l0.1-0.4l0.1-0.4l0-0.4
		l0-0.4l0-0.4l0-0.4l0-0.6l-0.1-0.6l-0.1-0.5l-0.1-0.5l-0.1-0.5l-0.2-0.5l-0.2-0.5l-0.2-0.5l-0.3-0.4l-0.3-0.4l-0.3-0.4l-0.4-0.4
		l-0.4-0.3l-0.4-0.3l-0.5-0.3l-0.5-0.3l-0.3-0.1l-0.3-0.1l-0.3-0.1l-0.3-0.1l-0.4-0.1l-0.4-0.1l-0.4-0.1l-0.4-0.1l-0.4-0.1l-0.5,0
		l-0.5,0l-0.6,0l-0.6,0l-0.7,0H236.3z M260.2,46.1l0.1-0.2l0.1-0.3l0.1-0.3l0.2-0.4l0.2-0.4l0.2-0.5l0.2-0.5l0.2-0.5l0,0.3l0,0.3
		l0,0.4l0,0.4l0,0.4l0.1,0.4l0.1,0.4l0.1,0.5l1.2,6.4h-5.7L260.2,46.1z M257.6,36.3l-12.6,25.1l1.3,2.1h5.6l2.6-5.1h9.5l1.1,5.1h7.4
		h-0.7l0.3-1.9l-5.4-25.3H257.6z M276.1,36.3l-4,25.3l0.4,1.9h6.5l1.7-10.6h7.9l1-5.9h-7.9l0.7-4.5h8.5l1-6.2H276.1z M294.6,36.3
		l-4.3,27.2h7.4l4.3-27.2H294.6z M303.5,36.3l-1,6.3h6.1l-3.3,20.9h7.3l3.3-20.9h5.8l1-6.3H303.5z M324.3,36.3L320,63.5h15.7l1-6.1
		h-8.4l0.7-4.5h7.8l0.9-5.9h-7.8l0.7-4.5h8.4l1-6.3H324.3z M178.9,57.6l-0.3,0l-0.3-0.1l-0.3-0.1l-0.3-0.1l-0.3-0.1l-0.3-0.1
		l-0.3-0.1l-0.3-0.1l-0.3-0.1l-0.3-0.2l-0.3-0.2l-0.2-0.2l-0.2-0.2l-0.2-0.2l-0.2-0.2l-0.2-0.3l-0.2-0.3l-0.2-0.3l-0.2-0.3l-0.1-0.3
		l-0.1-0.3l-0.1-0.3l-0.1-0.3l-0.1-0.3l-0.1-0.3l-0.1-0.3l0-0.4l0-0.4l0-0.4v-0.4v-0.4l0-0.4l0-0.4l0.1-0.4l0.1-0.4l0.1-0.4l0.1-0.4
		l0.1-0.4l0.1-0.4l0.2-0.4l0.2-0.3l0.2-0.3l0.2-0.3l0.2-0.3L175,45l0.3-0.3l0.3-0.3l0.3-0.3l0.3-0.3l0.3-0.2l0.3-0.2l0.3-0.2
		l0.3-0.2l0.3-0.2l0.4-0.1l0.4-0.1l0.4-0.1l0.4-0.1l0.4-0.1l0.4-0.1l0.4,0h0.4h0.3l0.4,0l0.3,0l0.3,0l0.3,0.1l0.3,0.1l0.3,0.1
		l0.3,0.1l0.3,0.1l0.3,0.1l0.3,0.2l0.3,0.2l0.3,0.2l0.3,0.2l0.2,0.2l0.2,0.2l0.2,0.2l0.2,0.3l0.2,0.3l0.2,0.3l0.2,0.3l0.2,0.3
		l0.1,0.3l0.1,0.3l0.1,0.3l0.1,0.3l0.1,0.3l0.1,0.3l0.1,0.3l0,0.3l0,0.4V49v0.4l0,0.4l0,0.4l-0.1,0.4l-0.1,0.4l-0.1,0.4L187,52
		l-0.1,0.4l-0.1,0.4l-0.2,0.4l-0.2,0.4l-0.2,0.3l-0.2,0.3l-0.3,0.3l-0.3,0.3l-0.3,0.3l-0.3,0.3l-0.3,0.3l-0.3,0.3l-0.3,0.2l-0.3,0.2
		l-0.3,0.2l-0.3,0.2l-0.4,0.2l-0.3,0.1l-0.4,0.1l-0.4,0.1l-0.4,0.1l-0.4,0.1l-0.4,0l-0.4,0l-0.4,0h-0.4L178.9,57.6z M181.3,35.7
		h-0.4l-0.4,0l-0.5,0l-0.4,0l-0.4,0l-0.4,0.1l-0.4,0.1l-0.4,0.1l-0.4,0.1l-0.4,0.1l-0.4,0.1l-0.4,0.1l-0.4,0.1l-0.4,0.1l-0.4,0.1
		l-0.4,0.2l-0.4,0.2l-0.4,0.2l-0.4,0.2l-0.4,0.2l-0.4,0.2l-0.4,0.2l-0.3,0.2l-0.3,0.3l-0.3,0.3l-0.3,0.3l-0.3,0.3l-0.3,0.3l-0.3,0.3
		l-0.3,0.3l-0.3,0.3l-0.3,0.3l-0.4,0.5l-0.4,0.6l-0.4,0.6l-0.4,0.6l-0.3,0.6l-0.3,0.6l-0.3,0.6l-0.3,0.7l-0.2,0.7l-0.2,0.7l-0.2,0.7
		l-0.1,0.7l-0.1,0.7l-0.1,0.7l0,0.7l0,0.7l0,0.7l0,0.7l0.1,0.7l0.1,0.7l0.1,0.7l0.2,0.7l0.2,0.6l0.3,0.6l0.3,0.6l0.3,0.6l0.3,0.6
		l0.4,0.5l0.4,0.5l0.4,0.5l0.4,0.5l0.5,0.4l0.5,0.4l0.5,0.4l0.5,0.3l0.5,0.3l0.5,0.3l0.6,0.3l0.6,0.2l0.6,0.2l0.6,0.2l0.6,0.2
		l0.6,0.1l0.7,0.1l0.7,0.1l0.7,0.1l0.7,0l0.7,0h0.4l0.5,0l0.4,0l0.4,0l0.4,0l0.4-0.1l0.4-0.1l0.4-0.1l0.4-0.1l0.4-0.1l0.4-0.1
		l0.4-0.1l0.4-0.1l0.4-0.1l0.4-0.1l0.4-0.2l0.4-0.2l0.4-0.2l0.4-0.2l0.4-0.2l0.3-0.2l0.4-0.2l0.3-0.2l0.3-0.3l0.3-0.3l0.3-0.3
		l0.3-0.3l0.3-0.3l0.3-0.3l0.3-0.3l0.3-0.3l0.3-0.3l0.4-0.5l0.4-0.6l0.4-0.6l0.4-0.6l0.3-0.6l0.3-0.6l0.3-0.6l0.3-0.7l0.2-0.7
		l0.2-0.7l0.2-0.7l0.1-0.7l0.1-0.7l0.1-0.7l0-0.7l0-0.7l0-0.7l0-0.7l-0.1-0.7l-0.1-0.6l-0.1-0.6l-0.1-0.6l-0.2-0.6l-0.2-0.6
		l-0.3-0.6l-0.3-0.5l-0.3-0.5l-0.3-0.5l-0.4-0.5l-0.4-0.5l-0.4-0.5l-0.5-0.5l-0.5-0.4l-0.5-0.4l-0.5-0.4l-0.5-0.4l-0.6-0.3l-0.6-0.3
		l-0.6-0.3l-0.6-0.2l-0.6-0.2l-0.6-0.2l-0.7-0.1l-0.7-0.1l-0.7-0.1l-0.7-0.1l-0.7,0H181.3z M211.7,35.7h-0.8l-0.8,0.1l-0.8,0.1
		l-0.8,0.1l-0.8,0.1l-0.7,0.2l-0.7,0.2l-0.7,0.3l-0.7,0.3l-0.7,0.3l-0.6,0.4l-0.6,0.4l-0.6,0.4l-0.6,0.4l-0.6,0.5l-0.5,0.5l-0.6,0.6
		l-0.5,0.6l-0.5,0.6l-0.4,0.6l-0.4,0.7l-0.4,0.7l-0.3,0.7l-0.3,0.7l-0.3,0.7l-0.2,0.7l-0.2,0.8l-0.2,0.8l-0.1,0.8l-0.1,0.8l-0.1,0.8
		l0,0.8l0,0.7l0,0.7l0.1,0.7l0.1,0.7l0.1,0.7l0.2,0.6l0.2,0.6l0.2,0.6l0.3,0.6l0.3,0.6l0.3,0.5l0.3,0.5l0.4,0.5l0.4,0.5l0.4,0.5
		l0.5,0.4l0.5,0.4l0.5,0.4l0.5,0.4l0.5,0.4l0.6,0.3l0.6,0.3l0.6,0.3l0.6,0.3l0.7,0.2l0.7,0.2l0.7,0.1L207,64l0.7,0.1l0.7,0.1l0.8,0
		l0.8,0l0.8,0l0.8,0l0.8-0.1l0.7-0.1l0.7-0.2l0.7-0.2l0.7-0.2l0.7-0.3l0.6-0.3l0.6-0.3l0.6-0.3l0.6-0.4l0.6-0.4l0.5-0.4l0.5-0.5
		l0.5-0.5l0.5-0.5l0.4-0.6l0.4-0.6l0.4-0.6l0.4-0.6l0.3-0.7l0.3-0.7l0.3-0.7l0.2-0.7l0.2-0.7L224,53l0.1-0.8l0.1-0.8l0.1-0.8
		l0.1-0.9l0-0.9l-13.6,0l-0.9,5.5h6.2l-0.2,0.4l-0.2,0.4l-0.2,0.4l-0.3,0.4l-0.3,0.3l-0.3,0.3l-0.3,0.3l-0.3,0.2l-0.4,0.2l-0.4,0.2
		l-0.4,0.2l-0.5,0.1l-0.5,0.1l-0.5,0.1l-0.5,0l-0.5,0l-0.4,0l-0.4,0l-0.3,0l-0.3,0l-0.3-0.1l-0.3-0.1l-0.3-0.1l-0.3-0.1l-0.3-0.1
		l-0.3-0.1l-0.3-0.1l-0.3-0.2l-0.3-0.2l-0.3-0.2l-0.2-0.2l-0.2-0.2l-0.2-0.3l-0.2-0.3l-0.2-0.3l-0.2-0.3l-0.1-0.3l-0.1-0.3l-0.1-0.3
		l-0.1-0.3l-0.1-0.3l-0.1-0.3l-0.1-0.3l-0.1-0.4l0-0.4l0-0.4l0-0.4l0-0.4l0-0.5l0-0.4l0-0.4l0.1-0.4l0.1-0.4l0.1-0.4l0.1-0.4
		l0.1-0.4l0.1-0.4l0.2-0.4l0.2-0.4l0.2-0.3l0.2-0.4l0.2-0.3l0.3-0.3l0.3-0.3l0.3-0.3l0.3-0.3l0.3-0.3l0.3-0.3l0.3-0.2l0.3-0.2
		l0.3-0.2l0.4-0.2l0.4-0.1l0.4-0.1l0.4-0.1l0.4-0.1l0.4-0.1l0.4,0l0.4,0h0.4h0.5l0.5,0l0.5,0.1l0.5,0.1l0.4,0.1l0.4,0.1l0.4,0.2
		l0.4,0.2l0.4,0.2l0.3,0.3l0.3,0.3l0.3,0.3l0.3,0.4l0.3,0.4l0.3,0.4l0.3,0.4l5.8-3.9l-0.3-0.4l-0.3-0.4l-0.3-0.4l-0.3-0.4l-0.3-0.3
		l-0.3-0.3l-0.3-0.3l-0.3-0.3l-0.3-0.3l-0.3-0.3l-0.3-0.3l-0.3-0.3l-0.3-0.2l-0.3-0.2l-0.4-0.2l-0.4-0.2l-0.4-0.2l-0.4-0.2l-0.4-0.2
		l-0.4-0.1l-0.4-0.1l-0.4-0.1l-0.4-0.1l-0.4-0.1l-0.4-0.1l-0.4-0.1l-0.4-0.1l-0.5-0.1l-0.4,0l-0.5,0l-0.5,0H211.7z M88.9,35.7
		l-0.9,0l-0.9,0.1l-0.5,0l-0.4,0.1l-0.4,0.1L85.3,36l-0.4,0.1l-0.4,0.1l-0.4,0.1l-0.4,0.1l-0.4,0.1l-0.4,0.1l-0.4,0.2L82.1,37
		l-0.4,0.2l-0.4,0.2L81,37.5l-0.4,0.2l-0.3,0.2l-0.3,0.2l-0.3,0.2l-0.3,0.2l-0.3,0.3l-0.3,0.3l-0.3,0.3l-0.3,0.3l-0.3,0.3l-0.3,0.3
		l-0.3,0.3L77,40.8l-0.4,0.6l-0.4,0.5l-0.4,0.6L75.4,43l-0.3,0.6l-0.3,0.6l-0.3,0.6l-0.2,0.6l-0.2,0.7l-0.2,0.7l-0.1,0.7l-0.1,0.7
		l-0.1,0.7l-0.1,0.7l0,0.7l0,0.7l0,0.7l0,0.7l0.1,0.7l0.1,0.7l0.1,0.7l0.1,0.7l0.2,0.6l0.2,0.6l0.2,0.6l0.3,0.6l0.3,0.6l0.3,0.5
		l0.3,0.5l0.4,0.5l0.4,0.5l0.4,0.5l0.5,0.4l0.5,0.4l0.5,0.4l0.5,0.4l0.5,0.3l0.5,0.3l0.5,0.3l0.6,0.3l0.6,0.2l0.6,0.2l0.6,0.2
		l0.6,0.1l0.7,0.1l0.7,0.1l0.7,0h0.7h0.5h0.5l0.5,0l0.5,0l0.4,0l0.4,0l0.4,0l0.4-0.1l0.8-0.1l0.8-0.1l0.7-0.2l0,0l1-1.9l0.9-5.3
		l-0.4,0.2l-0.4,0.1l-0.4,0.1l-0.4,0.1L92,57l-0.4,0.1l-0.4,0.1l-0.4,0.1l-0.8,0.1l-0.8,0.1l-0.4,0l-0.4,0l-0.4,0h-0.4h-0.4l-0.4,0
		l-0.4,0l-0.4-0.1l-0.4-0.1l-0.4-0.1l-0.3-0.1l-0.3-0.1l-0.3-0.1L84.3,57L84,56.8l-0.3-0.2l-0.3-0.2l-0.3-0.2l-0.3-0.2l-0.2-0.2
		l-0.2-0.2l-0.2-0.3l-0.2-0.3l-0.2-0.3l-0.2-0.3l-0.1-0.3L81.4,54l-0.1-0.3l-0.1-0.3L81.1,53L81,52.6L81,52.3l-0.1-0.4l0-0.4l0-0.4
		l0-0.4l0-0.4l0-0.4l0-0.4L81,49l0.1-0.4l0.1-0.4l0.1-0.4l0.1-0.4l0.1-0.4l0.2-0.4l0.2-0.3l0.2-0.3l0.2-0.3l0.2-0.3l0.3-0.3l0.3-0.3
		l0.3-0.3l0.3-0.3l0.3-0.3l0.3-0.2l0.3-0.2l0.3-0.2l0.3-0.2l0.3-0.1l0.4-0.1l0.4-0.1l0.4-0.1l0.4-0.1l0.4-0.1l0.4-0.1l0.4,0h0.4h0.5
		l0.5,0l0.5,0l0.5,0.1l0.5,0.1l0.5,0.1l0.5,0.1l0.5,0.2l0.4,0.2l0.4,0.2l0.4,0.2l0.4,0.2l0.4,0.3l0.4,0.3l0.4,0.3l0.4,0.3l1.2-7.5
		l-0.5-0.2l-0.5-0.2l-0.5-0.2l-0.5-0.2l-0.5-0.2l-0.5-0.2l-0.5-0.1l-0.5-0.1L92.6,36l-0.5-0.1l-0.5-0.1L91,35.8l-0.5,0l-0.5,0
		l-0.5,0H88.9z"/>
	<rect x="119.6" y="61.6" class="st2" width="1.5" height="2"/>
	<rect x="243.4" y="61.4" class="st4" width="3.5" height="2.1"/>
	<rect x="271.5" y="61.6" class="st2" width="1.5" height="2"/>
	<polygon class="st4" points="92.8,61.4 94,61.6 93.3,63.4 91.8,63.4 	"/>
</g>
</svg>
